<svg width="0" height="0" class="hidden">
  <symbol xmlns="http://www.w3.org/2000/svg" viewBox="0 0 24 24" id="edit">
    <title></title>
    <g id="Complete">
      <g id="edit">
        <g>
          <path d="M20,16v4a2,2,0,0,1-2,2H4a2,2,0,0,1-2-2V6A2,2,0,0,1,4,4H8" fill="none" stroke-linecap="round" stroke-linejoin="round" stroke-width="2"></path>
          <polygon fill="none" points="12.5 15.8 22 6.2 17.8 2 8.3 11.5 8 16 12.5 15.8" stroke-linecap="round" stroke-linejoin="round" stroke-width="2"></polygon>
        </g>
      </g>
    </g>
  </symbol>
  <symbol version="1.1" id="search" xmlns="http://www.w3.org/2000/svg" xmlns:xlink="http://www.w3.org/1999/xlink" xml:space="preserve" viewBox="0 0 390.704 390.704">
    <g>
      <g>
        <path d="M379.711,326.556L265.343,212.188c30.826-54.189,23.166-124.495-23.001-170.663c-55.367-55.366-145.453-55.366-200.818,0
			c-55.365,55.366-55.366,145.452,0,200.818c46.167,46.167,116.474,53.827,170.663,23.001l114.367,114.369
			c14.655,14.655,38.503,14.654,53.157,0C394.367,365.059,394.368,341.212,379.711,326.556z M214.057,214.059
			c-39.77,39.771-104.479,39.771-144.25,0c-39.77-39.77-39.77-104.48,0-144.25c39.771-39.77,104.48-39.77,144.25,0
			C253.828,109.579,253.827,174.29,214.057,214.059z"></path>
      </g>
    </g>
  </symbol>
</svg>